<?xml version="1.0" encoding="utf-8"?>
<!-- Generator: Adobe Illustrator 25.2.0, SVG Export Plug-In . SVG Version: 6.00 Build 0)  -->
<svg version="1.1" id="Capa_1" xmlns="http://www.w3.org/2000/svg" xmlns:xlink="http://www.w3.org/1999/xlink" x="0px" y="0px"
	 viewBox="0 0 3176.996582 1005.5166016" style="enable-background:new 0 0 3176.996582 1005.5166016;" xml:space="preserve">
<style type="text/css">
	.st0{fill:#830065;}
	.st1{fill:#EF2C30;}
	.st2{fill:#FFFFFF;}
	.st3{fill:#60646C;}
</style>
<g>
	<g transform="matrix(.1488 0 0 .1488 -8.704 -6.964)">
		<g>
			<path class="st0" d="M6706.8686523,1621.7109375H5170.8710938
				c-80.9248047,455.2995605-214.8823242,1234.2978516-281.2719727,1614.958252h652.5039062
				c49.8901367-286.3791504,186.5981445-1071.6628418,247.0957031-1415.3962402h489.4760742
				c205.4545898,0,353.1616211,138.671875,318.984375,376.3391113
				c-32.6054688,188.1694336-111.565918,641.5046387-181.0981445,1039.0571289h652.5043945
				c46.3549805-267.130127,136.7075195-784.8908691,179.1337891-1028.8435059
				c58.140625-330.7696533-116.6723633-586.114502-541.3310547-586.114502"/>
		</g>
		<g>
			<path class="st0" d="M3373.6359863,3044.1782227c-303.2712402-49.890625-246.7023926-412.4802246-246.7023926-412.4802246
				c269.0942383,32.2128906,608.5063477,24.7487793,840.2807617,1.5715332
				c200.7402344-19.6420898,596.7216797-69.5324707,709.8588867-378.3032227
				c111.9584961-306.0209961,26.7128906-553.5091553-342.5551758-622.6486816
				c-271.8442383-50.2833252-524.439209-53.0332031-854.4233398-8.6424561
				c-471.0131836,63.2469482-730.2861328,222.7392578-845.3879395,502.8328857
				c-63.2468262,154.385498-101.3522949,337.8408203-118.2441406,504.4042969
				c-29.8557129,302.8781738,27.105957,580.6147461,406.1948242,610.8635254
				c508.3327637,40.8552246,908.2419434,31.8195801,1331.7214355-34.5698242l131.9936523-188.1696777
				c-401.873291,66.7824707-859.9228516,50.6762695-1012.7368164,25.1418457 M3245.9633789,2144.5786133
				c80.9245605-192.4908447,199.9545898-313.4849854,422.6938477-364.5539551
				c98.6022949-22.7845459,182.6696777-22.3918457,300.5212402,3.1427002
				c174.8127441,37.3195801,228.6320801,241.2026367,151.635498,400.302124
				c-85.6386719,177.5627441-200.3476562,217.2397461-350.4118652,247.8811035
				c-162.6352539,33.7839355-376.7319336,38.4980469-612.4350586,22.3918457
				c16.4992676-98.6025391,57.7473145-237.2744141,87.9960938-309.1638184"/>
		</g>
		<g>
			<path class="st0" d="M9778.8642578,3044.1782227c-303.2714844-49.890625-246.703125-412.4802246-246.703125-412.4802246
				c269.4873047,32.2128906,608.5058594,24.7487793,840.2802734,1.5715332
				c200.7412109-19.6420898,596.7216797-69.5324707,709.4667969-378.3032227
				c111.9589844-306.0209961,27.1054688-553.5091553-342.1621094-622.6486816
				c-272.2373047-50.2833252-524.8330078-53.0332031-854.8173828-8.6424561
				c-471.0126953,63.2469482-729.5,222.7392578-844.9951172,502.8328857
				c-63.6396484,154.385498-101.7451172,337.8408203-118.2441406,504.4042969
				c-29.8564453,302.8781738,27.1054688,580.6147461,406.1943359,610.8635254
				c507.9394531,40.8552246,907.8496094,31.8195801,1332.1142578-34.5698242l131.6005859-188.1696777
				c-401.8730469,66.7824707-859.5302734,50.6762695-1012.7363281,25.1418457 M9651.5830078,2144.5786133
				c80.53125-192.4908447,199.5615234-313.4849854,421.9072266-364.5539551
				c98.6035156-22.7845459,183.0634766-22.3918457,300.9150391,3.1427002
				c174.8125,37.3195801,228.2392578,241.2026367,152.0283203,400.302124
				c-86.03125,177.5627441-200.3476562,217.2397461-350.4121094,247.8811035
				c-162.6347656,33.7839355-376.7314453,38.4980469-612.4345703,22.3918457
				C9579.6943359,2355.1398926,9620.9423828,2216.4680176,9651.5830078,2144.5786133"/>
		</g>
		<g>
			<path class="st0" d="M1404.7304688,2159.8994141c34.5698242-197.2049561,104.4949951-311.1280518,318.5919189-350.019043
				c191.7049561-34.9625244,546.4381104-11.7850342,754.6422119,11.392334l139.8503418-199.9545898
				c-315.4489746-22.784668-848.1376953-48.7119141-1163.9796143-2.75
				c-450.192688,65.2111816-633.6481323,157.135376-684.7171631,445.0859375
				c-30.2485352,172.4558105-166.1705933,951.8469238-204.6687012,1173.0151367h652.5043945
				C1261.7374268,2979.7529297,1372.9107666,2342.1765137,1404.7304688,2159.8994141"/>
		</g>
		<g>
			<path class="st0" d="M8447.1425781,632.1513062c-370.8398438,260.0588989-496.5483398,579.0435181-564.9023438,971.0961304
				l-276.5581055,1581.9598389c-62.0683594,359.8395996-89.5673828,547.6162109-150.8500977,724.3935547
				c-49.1044922,148.1000977-210.5610352,365.7321777-479.2626953,369.2678223l-117.4584961,167.3491211
				c346.8764648,16.8920898,624.2202148-83.2817383,820.246582-220.3823242
				c370.8393555-259.6657715,507.546875-631.2910156,576.2929688-1022.5578613
				c4.7138672-26.7128906,125.3164062-719.2868652,183.0634766-1047.3066406
				c42.0332031-232.953125,164.2060547-360.6257324,421.515625-364.1611328l119.421875-170.098877h-447.8359375
				c63.6396484-362.9825439,86.4248047-519.7250977,138.6728516-670.5748901
				c51.0683594-148.1000366,210.9541016-365.7324219,478.8691406-368.8751831l119.4228516-170.098938
				c-347.6621094-17.2848816-624.6132812,82.8888855-820.6386719,219.9894409"/>
		</g>
	</g>
	<g>
		<g>
			<g>
				<circle class="st1" cx="2981.5227051" cy="803.9859619" r="150"/>
			</g>
			<g>
				<path class="st2" d="M2981.5224609,903.9862061c-55.140625,0-100-44.859375-100-100h50c0,27.5703125,22.4296875,50,50,50
					s50-22.4296875,50-50s-22.4296875-50-50-50v-50c55.140625,0,100,44.859375,100,100
					S3036.6630859,903.9862061,2981.5224609,903.9862061z"/>
			</g>
		</g>
		<g>
			<path class="st3" d="M1458.8997803,695.6609497c-11.4239502-3.8060303-22.8480225-5.7119751-34.2719727-5.7119751
				c-21.7650146,0-40.2580566,4.2199707-55.4880371,12.6480103c-15.2359619,8.434021-27.6800537,19.5839844-37.3320312,33.4559937
				c-9.657959,13.8720093-16.7280273,29.7839966-21.2159424,47.7360229
				c-4.4880371,17.9520264-6.7320557,36.4530029-6.7320557,55.4879761c0,23.6640015,6.0500488,42.7059937,18.1560059,57.1199951
				c12.0999756,14.4210205,30.5300293,21.6240234,55.2840576,21.6240234c6.2540283,0,12.3740234-0.5419922,18.3599854-1.632019
				c5.9799805-1.0839844,11.9659424-2.5819702,17.9520264-4.4879761l-6.1199951,27.7440186
				c-6.802002,1.9000244-13.5340576,3.1939697-20.1960449,3.8759766
				c-6.6679688,0.6760254-13.5340576,1.0209961-20.6040039,1.0209961c-15.2359619,0-28.8339844-2.2440186-40.8000488-6.7320557
				c-11.9720459-4.4880371-22.1719971-11.0159912-30.5999756-19.5839844
				c-8.4350586-8.5679932-14.8289795-18.8320312-19.1760254-30.8040161
				c-4.3540039-11.9660034-6.5279541-25.5629883-6.5279541-40.7999878c0-24.4799805,3.0600586-47.7999878,9.1800537-69.9719849
				c6.1199951-22.1660156,15.5040283-41.6160278,28.1519775-58.3439941s28.8280029-30.052002,48.552002-39.9840088
				c19.7180176-9.9260254,43.0439453-14.8920288,69.9720459-14.8920288c7.6120605,0,15.3640137,0.40802,23.2559814,1.223999
				c7.8859863,0.815979,15.3640137,2.3140259,22.4399414,4.4879761L1458.8997803,695.6609497z"/>
			<path class="st3" d="M1615.5708008,777.6689453c0,14.9619751-4.0159912,27.2020264-12.0360107,36.7199707
				c-8.026001,9.5239868-18.092041,17.0020142-30.1920166,22.4400024
				c-12.105957,5.4439697-25.092041,9.1799927-38.9639893,11.2199707s-26.6600342,3.0599976-38.3520508,3.0599976
				c-1.631958,7.8930054-2.447998,15.6450195-2.447998,23.2559814c0,14.6879883,3.8759766,26.0490112,11.6280518,34.0679932
				c7.7519531,8.026001,18.9720459,12.0360107,33.6600342,12.0360107c7.0699463,0,14.0760498-0.815979,21.0119629-2.447998
				s13.802002-3.9390259,20.6040039-6.9359741l2.0400391,23.6640015
				c-8.7080078,3.8120117-18.2960205,6.2540283-28.7640381,7.3439941c-10.473999,1.0839844-20.4699707,1.631958-29.9880371,1.631958
				c-10.6080322,0-19.723999-1.7020264-27.3360596-5.0999756c-7.618042-3.3979492-13.8719482-8.0900269-18.7679443-14.0759888
				c-4.8959961-5.9790039-8.5040283-13.0559692-10.8120117-21.2160034
				c-2.3139648-8.1599731-3.4680176-16.9959717-3.4680176-26.5209961c0-14.4140015,2.1739502-29.7839966,6.5279541-46.1040039
				c4.3480225-16.3200073,10.8120117-31.3460083,19.3800049-45.0839844
				c8.5679932-13.7310181,19.1760254-25.09198,31.8239746-34.0679932s27.131958-13.4639893,43.4520264-13.4639893
				c6.2540283,0,12.4439697,0.6820068,18.5639648,2.039978c6.1199951,1.3640137,11.5579834,3.6079712,16.3199463,6.7319946
				c4.7559814,3.1300049,8.631958,7.210022,11.6280518,12.2399902
				C1614.0727539,764.1409302,1615.5708008,770.3249512,1615.5708008,777.6689453z M1587.0107422,784.1969604
				c0-8.7020264-2.6519775-14.9559937-7.9560547-18.7680054c-5.3039551-3.8060303-11.9019775-5.7119751-19.7879639-5.7119751
				c-7.618042,0-14.6879883,2.5180054-21.2159424,7.5479736c-6.5279541,5.0360107-12.3800049,11.1560059-17.5439453,18.3599854
				c-5.1700439,7.210022-9.5240479,14.8920288-13.0560303,23.052002
				c-3.5379639,8.1599731-5.9859619,15.3699951-7.3439941,21.6240234c7.0699463,0,15.5679932-0.6119995,25.5-1.8359985
				c9.9260254-1.223999,19.4439697-3.5319824,28.5600586-6.9359741c9.1099854-3.3980103,16.8620605-8.0900269,23.2559814-14.0759888
				C1583.810791,801.4729614,1587.0107422,793.7209473,1587.0107422,784.1969604z"/>
			<path class="st3" d="M1749.3907471,767.4689331c-4.6280518-1.3579712-9.5240479-2.039978-14.6879883-2.039978
				c-10.6080322,0-20.4699707,4.9660034-29.5799561,14.8920288c-9.1159668,9.9320068-15.5739746,23.460022-19.3800049,40.5960083
				l-25.2960205,119.1359863h-29.7840576l42.4320068-198.2879639h25.2960205l-2.0400391,28.9680176
				c13.0560303-21.7579956,31.4160156-32.6400146,55.0799561-32.6400146c1.9000244,0,4.2840576,0.2039795,7.1400146,0.6119995
				s5.0999756,1.0200195,6.7320557,1.8359985L1749.3907471,767.4689331z"/>
			<path class="st3" d="M1899.942749,766.2449341c-5.4440918-2.1740112-11.1560059-3.5319824-17.1359863-4.0800171
				c-5.9859619-0.5419922-11.9720459-0.815979-17.9520264-0.815979c-12.7889404,0-23.6009521,3.8120117-32.4360352,11.4240112
				c-8.842041,7.617981-16.052002,16.9320068-21.6240234,27.947998
				c-5.5780029,11.0159912-9.657959,22.9179688-12.2399902,35.7000122
				c-2.5880127,12.7880249-3.8759766,24.2119751-3.8759766,34.2709961c0,7.0759888,0.6760254,13.6680298,2.0400391,19.7880249
				c1.3580322,6.1199951,3.6719971,11.4240112,6.9360352,15.9119873s7.6120605,7.9559937,13.0560303,10.4039917
				c5.4379883,2.447998,12.0999756,3.6719971,19.9919434,3.6719971c5.7120361,0,11.1500244-0.5419922,16.3199463-1.632019
				c5.1639404-1.0839844,10.4680176-2.7160034,15.9119873-4.8959961l2.0400391,23.2559814
				c-6.2600098,2.7230225-13.6679688,4.4880371-22.2359619,5.3050537c-8.5679932,0.8149414-16.3900146,1.223999-23.4599609,1.223999
				c-10.881958,0-20.1960449-1.9060059-27.947998-5.7120361s-14.1459961-8.9760132-19.1760254-15.5040283
				c-5.0360107-6.5280151-8.7080078-14.1400146-11.0159912-22.8480225
				c-2.3139648-8.7020264-3.4680176-17.9520264-3.4680176-27.7440186c0-16.0460205,2.2440186-32.0280151,6.7320557-47.9400024
				s11.2199707-30.2550049,20.1960449-43.0440063c8.9759521-12.7819824,20.1960449-23.1160278,33.6600342-31.0079956
				c13.4639893-7.8859863,29.1719971-11.8319702,47.1240234-11.8319702c7.0699463,0,13.8719482,0.2739868,20.3999023,0.815979
				c6.5280762,0.5479736,12.9160156,2.3140259,19.1760254,5.3040161L1899.942749,766.2449341z"/>
			<path class="st3" d="M2065.1806641,874.7719727c-2.1799316,10.8829956-3.9460449,21.6939697-5.3039551,32.4370117
				c-1.3640137,10.7479858-2.3139648,21.6939697-2.855957,32.8439941h-24.8878174v-35.0880127
				c-7.8920898,12.2399902-17.0720215,21.7639771-27.5400391,28.5600586
				c-10.4741211,6.7960205-23.1918945,10.1999512-38.1479492,10.1999512c-8.9760742,0-16.3898926-1.5679932-22.236084-4.69104
				c-5.8530273-3.1240234-10.4040527-7.2739868-13.6679688-12.4439697
				c-3.263916-5.1640015-5.5778809-11.2199707-6.9360352-18.1560059
				c-1.3640137-6.9359741-2.0400391-14.3439941-2.0400391-22.2360229c0-16.8610229,2.447998-34.0670166,7.3439941-51.6110229
				s12.2399902-33.4559937,22.0319824-47.7360229s21.9619141-25.9719849,36.5161133-35.0880127
				c14.5480957-9.1099854,31.4799805-13.6680298,50.7958984-13.6680298c8.7019043,0,18.0848389,0.6820068,28.1519775,2.039978
				c10.0600586,1.3640137,18.9020996,3.4039917,26.5200195,6.1199951L2065.1806641,874.7719727z M2031.7247314,760.532959
				c-12.7880859,0-24.0720215,4.3540039-33.8640137,13.0560303c-9.7919922,8.7080078-18.0219727,19.3800049-24.684082,32.0280151
				c-6.6679688,12.6480103-11.7680664,25.9780273-15.3000488,39.9840088
				c-3.5390625,14.0130005-5.3039551,26.1829834-5.3039551,36.5170288c0,4.0789795,0.3378906,8.434021,1.0200195,13.0560303
				c0.6760254,4.6279907,2.0400391,8.84198,4.0800781,12.6469727c2.0400391,3.8120117,4.6918945,7.007019,7.9560547,9.5889893
				c3.263916,2.5880127,7.6120605,3.8759766,13.0559082,3.8759766c8.9760742,0,16.9960938-2.447998,24.0720215-7.3449707
				c7.0700684-4.8959961,13.1899414-11.0159912,18.3601074-18.3590088
				c5.1640625-7.3449707,9.447998-15.4349976,12.8520508-24.276001c3.3979492-8.8359985,5.9160156-17.3400269,7.5480957-25.5
				l17.5438232-81.1920166C2050.626709,761.8969727,2041.5167236,760.532959,2031.7247314,760.532959z"/>
			<path class="st3" d="M2283.0517578,782.9729614c0,5.9860229-0.6818848,12.3800049-2.0400391,19.1760254l-29.3759766,137.9039917
				h-29.7839355l29.7839355-138.7199707c0.815918-3.5319824,1.2241211-7.3439941,1.2241211-11.4240112
				c0-9.5180054-2.6520996-16.7919922-7.9560547-21.8280029c-5.3039551-5.0300293-12.7180176-7.5479736-22.236084-7.5479736
				c-7.0759277,0-13.6040039,1.7719727-19.5839844,5.3040161c-5.986084,3.5380249-11.3601074,7.8920288-16.1159668,13.0560303
				c-4.7619629,5.1699829-8.6379395,10.8120117-11.6279297,16.9320068
				c-2.9970703,6.1199951-5.0371094,11.6279907-6.1201172,16.5239868l-27.3359375,127.7040405h-29.7839355l42.4318848-198.2879639
				h26.1120605l-2.447998,28.5599976c6.2539062-9.7919922,14.5471191-17.6079712,24.8879395-23.460022
				c10.3339844-5.8460083,22.0319824-8.7719727,35.0878906-8.7719727c14.4140625,0,25.5,3.8759766,33.2519531,11.6279907
				C2279.1755371,757.4729614,2283.0517578,768.55896,2283.0517578,782.9729614z"/>
			<path class="st3" d="M2347.5117188,940.0529785h-29.7839355l37.1279297-175.0319824h-26.9279785l4.8959961-23.2559814h56.7119141
				L2347.5117188,940.0529785z M2385.0476074,702.5969849h-24.4799805l41.2080078-54.6719971h37.1279297L2385.0476074,702.5969849z"
				/>
			<path class="st3" d="M2558.8515625,874.7719727c-2.1799316,10.8829956-3.9460449,21.6939697-5.3039551,32.4370117
				c-1.3640137,10.7479858-2.3139648,21.6939697-2.855957,32.8439941h-24.8879395v-35.0880127
				c-7.8920898,12.2399902-17.0720215,21.7639771-27.5400391,28.5600586
				c-10.4741211,6.7960205-23.1918945,10.1999512-38.1479492,10.1999512c-8.9760742,0-16.3898926-1.5679932-22.236084-4.69104
				c-5.8530273-3.1240234-10.4040527-7.2739868-13.6679688-12.4439697
				c-3.263916-5.1640015-5.5778809-11.2199707-6.9360352-18.1560059
				c-1.3640137-6.9359741-2.0400391-14.3439941-2.0400391-22.2360229c0-16.8610229,2.447998-34.0670166,7.3439941-51.6110229
				s12.2399902-33.4559937,22.0319824-47.7360229s21.9619141-25.9719849,36.5161133-35.0880127
				c14.5480957-9.1099854,31.4799805-13.6680298,50.7958984-13.6680298c8.7019043,0,18.0849609,0.6820068,28.1520996,2.039978
				c10.0600586,1.3640137,18.9020996,3.4039917,26.5200195,6.1199951L2558.8515625,874.7719727z M2525.395752,760.532959
				c-12.7880859,0-24.0720215,4.3540039-33.8640137,13.0560303c-9.7919922,8.7080078-18.0219727,19.3800049-24.684082,32.0280151
				c-6.6679688,12.6480103-11.7680664,25.9780273-15.3000488,39.9840088
				c-3.5390625,14.0130005-5.3039551,26.1829834-5.3039551,36.5170288c0,4.0789795,0.3378906,8.434021,1.0200195,13.0560303
				c0.6760254,4.6279907,2.0400391,8.84198,4.0800781,12.6469727c2.0400391,3.8120117,4.6918945,7.007019,7.9560547,9.5889893
				c3.263916,2.5880127,7.6120605,3.8759766,13.0559082,3.8759766c8.9760742,0,16.9960938-2.447998,24.0720215-7.3449707
				c7.0700684-4.8959961,13.1899414-11.0159912,18.3601074-18.3590088
				c5.1640625-7.3449707,9.447998-15.4349976,12.8520508-24.276001c3.3979492-8.8359985,5.9160156-17.3400269,7.5480957-25.5
				l17.5439453-81.1920166C2544.2976074,761.8969727,2535.1877441,760.532959,2525.395752,760.532959z"/>
			<path class="st3" d="M2727.7617188,767.8769531c-4.8959961-1.9000244-11.0859375-3.6019897-18.5639648-5.0999756
				c-7.4838867-1.4920044-13.9418945-2.2440186-19.3798828-2.2440186c-11.4240723,0-20.8081055,2.9260254-28.1520996,8.7719727
				c-7.3439941,5.8530273-11.0161133,14.7579956-11.0161133,26.723999c0,7.0759888,1.6320801,12.7880249,4.8959961,17.1359863
				c3.263916,4.3540039,7.2739258,8.1599731,12.0358887,11.4240112c4.7561035,3.2639771,9.9260254,6.3239746,15.5039062,9.1799927
				c5.5720215,2.8560181,10.7419434,6.1900024,15.5039062,9.9959717c4.7561035,3.8120117,8.7719727,8.5679932,12.0358887,14.2800293
				s4.8959961,13.0560303,4.8959961,22.0319824c0,10.6069946-2.2438965,19.9279785-6.7319336,27.9470215
				c-4.4880371,8.026001-10.4040527,14.6879883-17.7480469,19.9920044s-15.644043,9.249939-24.8879395,11.8319702
				c-9.25,2.5820312-18.6340332,3.8759766-28.1520996,3.8759766c-6.802002,0-14.5539551-0.8149414-23.2561035-2.447998
				c-8.7080078-1.631958-16.1799316-3.6719971-22.4399414-6.1199951l10.1999512-22.0310059
				c5.4379883,3.5380249,11.4240723,5.7819824,17.9519043,6.7310181c6.5280762,0.9559937,12.9160156,1.4290161,19.1760254,1.4290161
				c6.2539062,0,12.1699219-0.6760254,17.7480469-2.039978c5.5720215-1.3579712,10.4680176-3.6030273,14.6879883-6.7319946
				c4.2141113-3.1240234,7.5480957-7.0700073,9.9960938-11.8319702c2.447998-4.7559814,3.6721191-10.6719971,3.6721191-17.7479858
				c0-6.7960205-1.5681152-12.2399902-4.6918945-16.3200073c-3.1298828-4.0789795-7.0061035-7.6110229-11.6279297-10.6069946
				c-4.6279297-2.9899902-9.657959-5.8460083-15.0959473-8.5679932c-5.4440918-2.7160034-10.4750977-6.0499878-15.0959473-9.9959717
				c-4.6279297-3.9390259-8.5039062-8.9760132-11.6279297-15.0960083
				c-3.1298828-6.1199951-4.6918945-14.0759888-4.6918945-23.867981s1.8989258-18.4940186,5.7119141-26.1119995
				c3.8059082-7.6119995,8.9760742-13.9359741,15.5039062-18.9719849
				c6.5280762-5.0300293,14.0061035-8.835022,22.4399414-11.4240112c8.4279785-2.5819702,17.1359863-3.8759766,26.1120605-3.8759766
				c7.8859863,0,15.5039062,0.5479736,22.8479004,1.632019c7.3439941,1.0900269,14.9560547,2.8560181,22.8479004,5.3040161
				L2727.7617188,767.8769531z"/>
			<path class="st3" d="M1458.8997803,695.6609497c-11.4239502-3.8060303-22.8480225-5.7119751-34.2719727-5.7119751
				c-21.7650146,0-40.2580566,4.2199707-55.4880371,12.6480103c-15.2359619,8.434021-27.6800537,19.5839844-37.3320312,33.4559937
				c-9.657959,13.8720093-16.7280273,29.7839966-21.2159424,47.7360229
				c-4.4880371,17.9520264-6.7320557,36.4530029-6.7320557,55.4879761c0,23.6640015,6.0500488,42.7059937,18.1560059,57.1199951
				c12.0999756,14.4210205,30.5300293,21.6240234,55.2840576,21.6240234c6.2540283,0,12.3740234-0.5419922,18.3599854-1.632019
				c5.9799805-1.0839844,11.9659424-2.5819702,17.9520264-4.4879761l-6.1199951,27.7440186
				c-6.802002,1.9000244-13.5340576,3.1939697-20.1960449,3.8759766
				c-6.6679688,0.6760254-13.5340576,1.0209961-20.6040039,1.0209961c-15.2359619,0-28.8339844-2.2440186-40.8000488-6.7320557
				c-11.9720459-4.4880371-22.1719971-11.0159912-30.5999756-19.5839844
				c-8.4350586-8.5679932-14.8289795-18.8320312-19.1760254-30.8040161
				c-4.3540039-11.9660034-6.5279541-25.5629883-6.5279541-40.7999878c0-24.4799805,3.0600586-47.7999878,9.1800537-69.9719849
				c6.1199951-22.1660156,15.5040283-41.6160278,28.1519775-58.3439941s28.8280029-30.052002,48.552002-39.9840088
				c19.7180176-9.9260254,43.0439453-14.8920288,69.9720459-14.8920288c7.6120605,0,15.3640137,0.40802,23.2559814,1.223999
				c7.8859863,0.815979,15.3640137,2.3140259,22.4399414,4.4879761L1458.8997803,695.6609497z"/>
		</g>
	</g>
</g>
</svg>
