<?xml version="1.0" encoding="utf-8"?>
<!-- Generator: Adobe Illustrator 19.2.1, SVG Export Plug-In . SVG Version: 6.00 Build 0)  -->
<svg version="1.1" id="Capa_1" xmlns="http://www.w3.org/2000/svg" xmlns:xlink="http://www.w3.org/1999/xlink" x="0px" y="0px"
	 viewBox="0 0 299.5 344.8" style="enable-background:new 0 0 299.5 344.8;" xml:space="preserve">
<style type="text/css">
	.st0{fill:#FDFDFD;}
	.st1{fill:#FFC816;}
	.st2{fill:#004B83;}
</style>
<g>
	<g id="LGnUHf_1_">
		<g>
			<path class="st0" d="M249.9,136c-0.3-3.4-0.3-6.8-1.1-10.1c-3.6-15.3-11.6-28.6-18.9-42.2c-7.7-14.2-17.2-27.2-27.8-39.3
				c-3.3-3.8-6-9-12.1-9.6c-14.2-1.2-27.1,2.6-37.8,11.8c-23,19.7-32.7,46.5-38.5,75.2c-0.5,2.6,0.6,3.5,3.4,2.2
				c16.9-7.9,35-11.5,53.4-13.9c1.5-0.2,3.3-0.8,4.2,1.2c1,2.5-2.8,9.1-5.5,9.4c-17.1,1.7-33.9,4.6-50,10.8
				c-4.7,1.8-8.7,4.2-8.7,10.4c0,5.3-0.8,10.7-1,16c-1.4,27.9,1.1,55.6,7.8,82.7c4.9,20,11.7,39.4,21.6,57.6
				c3.9,7.2,8.5,13.9,13.2,20.5c2.8,4,6,4.7,10.3,1.5c8.9-6.4,16.4-14.4,22.5-23.2c15.7-22.7,29.4-46.5,39.7-72.2
				c4.6-11.6,9-23.2,13.3-34.9C244.3,172.4,248.1,154.5,249.9,136z M81.2,153.5c0.2-5.1,1.3-8.7,5.2-11.2c4.4-2.8,8.4-6.1,12.9-8.6
				c2.7-1.5,4.4-3.4,3.8-6.2c-0.9-4.3,1.3-7.7,2-11.6c4.2-22.2,10.8-43.5,23.3-62.6c9.6-14.6,21.7-26.1,39.4-30.8
				c-1.9-0.9-3.6-0.6-5.3,0c-7.4,2.7-14.3,6.3-20.5,11.2c-17.2,13.5-30.4,30.5-42.1,48.7c-22.5,34.9-40.5,71.9-48.9,113
				c-3.1,15.3-1.4,29.5,7.3,43c12.2,18.8,25.9,36.3,41.7,52c11.7,11.6,23.9,22.5,38.9,29.7c3,1.4,6.1,3.1,10,2.6
				c-39.5-54.6-50.5-116.2-47.6-181.8C94.3,144.1,88.3,148.8,81.2,153.5z"/>
			<path class="st1" d="M249.9,136c-1.9,18.4-5.7,36.4-12.1,53.9c-4.3,11.7-8.7,23.3-13.3,34.9c-10.3,25.7-24,49.6-39.7,72.2
				c-6.1,8.8-13.6,16.8-22.5,23.2c-4.4,3.2-7.5,2.5-10.3-1.5c-4.7-6.7-9.3-13.4-13.2-20.5c-9.8-18.2-16.6-37.6-21.6-57.6
				c-6.7-27.1-9.2-54.8-7.8-82.7c0.3-5.3,1-10.6,1-16c0-6.1,4-8.5,8.7-10.4c16.1-6.2,32.9-9.1,50-10.8c2.7-0.3,6.6-6.9,5.5-9.4
				c-0.9-2.1-2.6-1.4-4.2-1.2c-18.4,2.4-36.4,6.1-53.4,13.9c-2.8,1.3-4,0.5-3.4-2.2c5.8-28.7,15.5-55.5,38.5-75.2
				c10.7-9.2,23.6-13,37.8-11.8c6.1,0.5,8.8,5.8,12.1,9.6c10.6,12.1,20.1,25.1,27.8,39.3c7.3,13.6,15.3,26.9,18.9,42.2
				C249.7,129.3,249.6,132.6,249.9,136z"/>
			<path class="st2" d="M81.2,153.5c7.1-4.8,13.1-9.5,20.2-12.7c-2.9,65.6,8.1,127.2,47.6,181.8c-3.8,0.6-6.9-1.1-10-2.6
				c-15-7.2-27.3-18.1-38.9-29.7c-15.8-15.8-29.6-33.2-41.7-52c-8.7-13.5-10.4-27.7-7.3-43c8.4-41.1,26.4-78,48.9-113
				c11.7-18.2,24.9-35.2,42.1-48.7c6.2-4.8,13.1-8.4,20.5-11.2c1.7-0.6,3.4-0.9,5.3,0c-17.7,4.6-29.8,16.2-39.4,30.8
				c-12.5,19.1-19.1,40.4-23.3,62.6c-0.7,3.8-2.9,7.3-2,11.6c0.6,2.8-1.1,4.7-3.8,6.2c-4.5,2.5-8.5,5.9-12.9,8.6
				C82.5,144.8,81.4,148.4,81.2,153.5z"/>
		</g>
	</g>
</g>
</svg>
